{
  "accessors": {
    "accessor_21": {
      "bufferView": "bufferView_1",
      "byteOffset": 0,
      "byteStride": 0,
      "componentType": 5123,
      "count": 14004,
      "type": "SCALAR",
      "min": [
        0
      ],
      "max": [
        14003
      ]
    },
    "accessor_23": {
      "bufferView": "bufferView_0",
      "byteOffset": 0,
      "byteStride": 0,
      "componentType": 5123,
      "count": 3696,
      "max": [
        65535,
        65535,
        65535
      ],
      "min": [
        0,
        0,
        0
      ],
      "type": "VEC3",
      "extensions": {
        "WEB3D_quantized_attributes": {
          "decodedMin": [
            -0.3831469714641571,
            -0.02597399801015854,
            0
          ],
          "decodedMax": [
            0.4065239727497101,
            0.09610389173030853,
            0.025000199675559998
          ],
          "decodeMatrix": [
            0.000012049606228944337,
            0,
            0,
            0,
            0,
            0.0000018627891926522784,
            0,
            0,
            0,
            0,
            3.814785942711528e-7,
            0,
            -0.3831469714641571,
            -0.02597399801015854,
            0,
            1
          ]
        }
      }
    },
    "accessor_25": {
      "bufferView": "bufferView_0",
      "byteOffset": 22176,
      "byteStride": 0,
      "componentType": 5121,
      "count": 3696,
      "max": [
        255,
        255
      ],
      "min": [
        0,
        0
      ],
      "type": "VEC2"
    }
  },
  "animations": {},
  "asset": {
    "generator": "collada2gltf@",
    "premultipliedAlpha": true,
    "profile": {
      "api": "WebGL",
      "version": "1.0.2"
    },
    "version": "1.0"
  },
  "bufferViews": {
    "bufferView_0": {
      "buffer": "buffer_0",
      "byteLength": 29568,
      "byteOffset": 0,
      "target": 34962
    },
    "bufferView_1": {
      "buffer": "buffer_0",
      "byteLength": 28008,
      "byteOffset": 29568,
      "target": 34963
    }
  },
  "buffers": {
    "buffer_0": {
      "type": "arraybuffer",
      "byteLength": 57576,
      "uri": "data:application/octet-stream;base64,"
    }
  },
  "materials": {
    "typeBlinn-fx": {
      "name": "typeBlinn",
      "technique": "technique0",
      "values": {
        "ambient": [
          0,
          0,
          0,
          1
        ],
        "diffuse": [
          0.800000011920929,
          0.800000011920929,
          0.800000011920929,
          1
        ],
        "emission": [
          0,
          0,
          0,
          1
        ],
        "shininess": 6.3117899894714355,
        "specular": [
          0.5,
          0.5,
          0.5,
          1
        ],
        "transparency": 0
      }
    }
  },
  "meshes": {
    "typeMesh1-lib": {
      "name": "typeMesh1Mesh",
      "primitives": [
        {
          "attributes": {
            "NORMAL": "accessor_25",
            "POSITION": "accessor_23"
          },
          "indices": "accessor_21",
          "material": "typeBlinn-fx",
          "mode": 4
        }
      ]
    }
  },
  "nodes": {
    "rootNode": {
      "children": [],
      "meshes": [
        "typeMesh1-lib"
      ],
      "matrix": [
        1,
        0,
        0,
        0,
        0,
        1,
        0,
        0,
        0,
        0,
        1,
        0,
        0,
        0,
        0,
        1
      ]
    }
  },
  "programs": {
    "program_0": {
      "attributes": [
        "a_normal",
        "a_position"
      ],
      "fragmentShader": "input0FS",
      "vertexShader": "input0VS"
    }
  },
  "scene": "defaultScene",
  "scenes": {
    "defaultScene": {
      "nodes": [
        "rootNode"
      ]
    }
  },
  "shaders": {
    "input0FS": {
      "type": 35632,
      "uri": "data:text/plain;base64,"
    },
    "input0VS": {
      "type": 35633,
      "uri": "data:text/plain;base64,"
    }
  },
  "skins": {},
  "techniques": {
    "technique0": {
      "attributes": {
        "a_normal": "normal",
        "a_position": "position"
      },
      "parameters": {
        "ambient": {
          "type": 35666
        },
        "diffuse": {
          "type": 35666
        },
        "emission": {
          "type": 35666
        },
        "modelViewMatrix": {
          "semantic": "MODELVIEW",
          "type": 35676
        },
        "normal": {
          "semantic": "NORMAL",
          "type": 35667
        },
        "normalMatrix": {
          "semantic": "MODELVIEWINVERSETRANSPOSE",
          "type": 35675
        },
        "position": {
          "semantic": "POSITION",
          "type": 35665
        },
        "projectionMatrix": {
          "semantic": "PROJECTION",
          "type": 35676
        },
        "shininess": {
          "type": 5126
        },
        "specular": {
          "type": 35666
        },
        "transparency": {
          "type": 5126
        }
      },
      "program": "program_0",
      "states": {
        "enable": [
          2929,
          3042
        ],
        "functions": {
          "blendEquationSeparate": [
            32774,
            32774
          ],
          "blendFuncSeparate": [
            1,
            771,
            1,
            771
          ],
          "depthMask": [
            false
          ]
        },
        "disable": []
      },
      "uniforms": {
        "u_ambient": "ambient",
        "u_diffuse": "diffuse",
        "u_emission": "emission",
        "u_modelViewMatrix": "modelViewMatrix",
        "u_normalMatrix": "normalMatrix",
        "u_projectionMatrix": "projectionMatrix",
        "u_shininess": "shininess",
        "u_specular": "specular",
        "u_transparency": "transparency"
      }
    }
  },
  "extensionsUsed": [
    "WEB3D_quantized_attributes"
  ],
  "cameras": {},
  "images": {},
  "samplers": {},
  "textures": {}
}
