{
  "accessors": [
    {
      "name": "pTorus1_1_positions",
      "componentType": 5126,
      "count": 441,
      "min": [
        -1.5,
        -0.5,
        -1.5000009536743164
      ],
      "max": [
        1.5,
        0.5,
        1.5
      ],
      "type": "VEC3",
      "bufferView": 0,
      "byteOffset": 0
    },
    {
      "name": "pTorus1_1_normals",
      "componentType": 5126,
      "count": 441,
      "min": [
        -1,
        -0.9996179938316345,
        -1
      ],
      "max": [
        1,
        0.9996179938316345,
        1
      ],
      "type": "VEC3",
      "bufferView": 0,
      "byteOffset": 5292
    },
    {
      "name": "pTorus1_1_texcoords",
      "componentType": 5126,
      "count": 441,
      "min": [
        0,
        0
      ],
      "max": [
        1,
        1
      ],
      "type": "VEC2",
      "bufferView": 1,
      "byteOffset": 0
    },
    {
      "name": "pTorus1_1_0_indices",
      "componentType": 5123,
      "count": 2400,
      "min": [
        0
      ],
      "max": [
        440
      ],
      "type": "SCALAR",
      "bufferView": 2,
      "byteOffset": 0
    }
  ],
  "asset": {
    "generator": "obj2gltf",
    "version": "2.0"
  },
  "buffers": [
    {
      "name": "GreenTorus",
      "byteLength": 18912,
      "uri": "data:application/octet-stream;base64,"
    }
  ],
  "bufferViews": [
    {
      "name": "bufferView_0",
      "buffer": 0,
      "byteLength": 10584,
      "byteOffset": 0,
      "byteStride": 12,
      "target": 34962
    },
    {
      "name": "bufferView_1",
      "buffer": 0,
      "byteLength": 3528,
      "byteOffset": 10584,
      "byteStride": 8,
      "target": 34962
    },
    {
      "name": "bufferView_2",
      "buffer": 0,
      "byteLength": 4800,
      "byteOffset": 14112,
      "target": 34963
    }
  ],
  "materials": [
    {
      "name": "blinn1SG",
      "pbrMetallicRoughness": {
        "baseColorFactor": [
          0.1,
          0.5,
          0.04,
          1
        ],
        "metallicFactor": 0,
        "roughnessFactor": 1
      },
      "emissiveFactor": [
        0,
        0,
        0
      ],
      "alphaMode": "OPAQUE",
      "doubleSided": false
    }
  ],
  "meshes": [
    {
      "name": "pTorus1_1",
      "primitives": [
        {
          "attributes": {
            "POSITION": 0,
            "NORMAL": 1,
            "TEXCOORD_0": 2
          },
          "indices": 3,
          "material": 0,
          "mode": 4
        }
      ]
    }
  ],
  "nodes": [
    {
      "name": "pTorus1",
      "mesh": 0
    }
  ],
  "scene": 0,
  "scenes": [
    {
      "nodes": [
        0
      ]
    }
  ]
}
