{
  "accessors": [
    {
      "name": "typeMesh1_1_positions",
      "componentType": 5126,
      "count": 3920,
      "min": [
        -38.31473159790039,
        -2.597403049468994,
        0
      ],
      "max": [
        40.65239334106445,
        9.610389709472656,
        2.5000200271606445
      ],
      "type": "VEC3",
      "bufferView": 0,
      "byteOffset": 0
    },
    {
      "name": "typeMesh1_1_normals",
      "componentType": 5126,
      "count": 3920,
      "min": [
        -1,
        -1,
        -1
      ],
      "max": [
        1,
        1,
        1
      ],
      "type": "VEC3",
      "bufferView": 0,
      "byteOffset": 47040
    },
    {
      "name": "typeMesh1_1_texcoords",
      "componentType": 5126,
      "count": 3920,
      "min": [
        0.0019460000330582261,
        0.0019920000340789557
      ],
      "max": [
        0.975184977054596,
        0.9980080127716064
      ],
      "type": "VEC2",
      "bufferView": 1,
      "byteOffset": 0
    },
    {
      "name": "typeMesh1_1_0_indices",
      "componentType": 5123,
      "count": 13899,
      "min": [
        0
      ],
      "max": [
        3919
      ],
      "type": "SCALAR",
      "bufferView": 2,
      "byteOffset": 0
    }
  ],
  "asset": {
    "generator": "obj2gltf",
    "version": "2.0"
  },
  "buffers": [
    {
      "name": "TestText",
      "byteLength": 153240,
      "uri": "data:application/octet-stream;base64,"
    }
  ],
  "bufferViews": [
    {
      "name": "bufferView_0",
      "buffer": 0,
      "byteLength": 94080,
      "byteOffset": 0,
      "byteStride": 12,
      "target": 34962
    },
    {
      "name": "bufferView_1",
      "buffer": 0,
      "byteLength": 31360,
      "byteOffset": 94080,
      "byteStride": 8,
      "target": 34962
    },
    {
      "name": "bufferView_2",
      "buffer": 0,
      "byteLength": 27800,
      "byteOffset": 125440,
      "target": 34963
    }
  ],
  "materials": [
    {
      "name": "typeBlinnSG",
      "pbrMetallicRoughness": {
        "baseColorFactor": [
          1,
          1,
          1,
          1
        ],
        "metallicFactor": 0,
        "roughnessFactor": 1
      },
      "emissiveFactor": [
        0,
        0,
        0
      ],
      "alphaMode": "OPAQUE",
      "doubleSided": false
    }
  ],
  "meshes": [
    {
      "name": "typeMesh1_1",
      "primitives": [
        {
          "attributes": {
            "POSITION": 0,
            "NORMAL": 1,
            "TEXCOORD_0": 2
          },
          "indices": 3,
          "material": 0,
          "mode": 4
        }
      ]
    }
  ],
  "nodes": [
    {
      "name": "typeMesh1",
      "mesh": 0
    }
  ],
  "scene": 0,
  "scenes": [
    {
      "nodes": [
        0
      ]
    }
  ]
}
